<svg width="72" height="72" viewBox="0 0 72 72" fill="none" xmlns="http://www.w3.org/2000/svg">
<path d="M25 19L48 26M33 54L52 39M19 48L16 24M24 14C24 19.5228 19.5228 24 14 24C8.47715 24 4 19.5228 4 14C4 8.47715 8.47715 4 14 4C19.5228 4 24 8.47715 24 14ZM68 30C68 35.5228 63.5228 40 58 40C52.4772 40 48 35.5228 48 30C48 24.4772 52.4772 20 58 20C63.5228 20 68 24.4772 68 30ZM32 58C32 63.5228 27.5228 68 22 68C16.4772 68 12 63.5228 12 58C12 52.4772 16.4772 48 22 48C27.5228 48 32 52.4772 32 58Z" stroke="white" stroke-width="8" stroke-linecap="round"/>
</svg>
