<svg width="72" height="72" viewBox="0 0 72 72" fill="none" xmlns="http://www.w3.org/2000/svg">
<path d="M36.1143 40.2286C38.3865 40.2286 40.2286 38.3865 40.2286 36.1143C40.2286 33.842 38.3865 32 36.1143 32C33.842 32 32 33.842 32 36.1143C32 38.3865 33.842 40.2286 36.1143 40.2286Z" fill="white"/>
<path d="M24.1143 68.2286C26.3865 68.2286 28.2286 66.3865 28.2286 64.1143C28.2286 61.842 26.3865 60 24.1143 60C21.842 60 20 61.842 20 64.1143C20 66.3865 21.842 68.2286 24.1143 68.2286Z" fill="white"/>
<path d="M64.1143 28.2286C66.3865 28.2286 68.2286 26.3865 68.2286 24.1143C68.2286 21.842 66.3865 20 64.1143 20C61.842 20 60 21.842 60 24.1143C60 26.3865 61.842 28.2286 64.1143 28.2286Z" fill="white"/>
<path d="M48.1143 12.2286C50.3865 12.2286 52.2286 10.3865 52.2286 8.1143C52.2286 5.842 50.3865 4 48.1143 4C45.842 4 44 5.842 44 8.1143C44 10.3865 45.842 12.2286 48.1143 12.2286Z" fill="white"/>
<path d="M8.1143 52.2286C10.3865 52.2286 12.2286 50.3865 12.2286 48.1143C12.2286 45.842 10.3865 44 8.1143 44C5.842 44 4 45.842 4 48.1143C4 50.3865 5.842 52.2286 8.1143 52.2286Z" fill="white"/>
<path d="M20 4V12M36 20H28M20 36V28M12 20H4M52 36V44M68 52H60M52 68V60M44 52H36" stroke="white" stroke-width="8" stroke-linecap="round" stroke-linejoin="round"/>
</svg>
