<svg width="72" height="72" viewBox="0 0 72 72" fill="none" xmlns="http://www.w3.org/2000/svg">
<path d="M36 40.1143C38.2723 40.1143 40.1143 38.2723 40.1143 36C40.1143 33.7278 38.2723 31.8857 36 31.8857C33.7278 31.8857 31.8857 33.7278 31.8857 36C31.8857 38.2723 33.7278 40.1143 36 40.1143Z" fill="white"/>
<path d="M36 40.1143C38.2723 40.1143 40.1143 38.2723 40.1143 36C40.1143 33.7278 38.2723 31.8857 36 31.8857C33.7278 31.8857 31.8857 33.7278 31.8857 36C31.8857 38.2723 33.7278 40.1143 36 40.1143Z" stroke="white" stroke-width="8"/>
<path d="M36 52C44.8366 52 52 44.8366 52 36C52 27.1634 44.8366 20 36 20C27.1634 20 20 27.1634 20 36C20 44.8366 27.1634 52 36 52Z" stroke="white" stroke-width="8"/>
<path d="M36 68C53.6731 68 68 53.6731 68 36C68 18.3269 53.6731 4 36 4C18.3269 4 4 18.3269 4 36C4 53.6731 18.3269 68 36 68Z" stroke="white" stroke-width="8"/>
</svg>
